<svg width="106" height="37" viewBox="0 0 106 37" fill="none" xmlns="http://www.w3.org/2000/svg">
<path d="M37.4749 19.2692C39.8711 19.2692 40.7233 18.8493 41.3038 18.2688C41.8473 17.7253 42.0079 17.0337 42.0079 16.2926C42.0079 15.5639 41.872 14.8722 41.3285 14.3287C40.7357 13.7359 39.9452 13.3653 37.512 13.3653H30.4347V22.0112H32.3491V19.2692H37.4749ZM32.3491 17.7253V14.9092H37.6108C38.9941 14.9092 39.4882 15.0821 39.7599 15.3539C40.0193 15.6133 40.1058 15.9097 40.1058 16.3173C40.1058 16.7249 40.0193 17.0213 39.7599 17.2807C39.4882 17.5524 38.9941 17.7253 37.6108 17.7253H32.3491ZM46.3914 22.0112V13.3653H44.477V22.0112H46.3914ZM55.8225 22.2089C58.2557 22.2089 60.0714 21.7024 61.1212 21.1219V19.4298C59.8861 20.1215 57.9346 20.6649 55.8225 20.6649C53.6981 20.6649 52.3888 20.2079 51.8207 19.6398C51.3637 19.1828 51.1167 18.5776 51.1167 17.6883C51.1167 16.799 51.3513 16.1691 51.8083 15.7121C52.3765 15.1439 53.7104 14.7116 55.8349 14.7116C57.9469 14.7116 59.8861 15.3045 61.1212 16.0332V14.2546C60.0714 13.6741 58.2557 13.1677 55.8225 13.1677C52.7841 13.1677 51.129 13.8841 50.3138 14.6993C49.5604 15.4527 49.1899 16.5025 49.1899 17.6883C49.1899 18.874 49.5604 19.9239 50.3138 20.6773C51.129 21.4925 52.7841 22.2089 55.8225 22.2089ZM65.9654 20.4303V13.3653H64.051V22.0112H74.6608V20.4303H65.9654ZM81.6498 13.3159L75.6347 22.0112H77.7467L79.1301 19.9733H86.6767L88.0601 22.0112H90.2586L84.2435 13.3159H81.6498ZM82.8972 14.4028L85.6392 18.4417H80.1676L82.8972 14.4028ZM92.155 22.0112H99.7511C102.221 22.0112 103.135 21.6036 103.666 21.0725C104.099 20.6402 104.21 20.1091 104.21 19.5904C104.21 18.4294 103.456 17.8612 102.135 17.6142C103.395 17.3548 104.086 16.7619 104.086 15.638C104.086 15.0945 103.975 14.6375 103.568 14.2299C102.987 13.6494 102.184 13.3653 99.8375 13.3653H92.155V22.0112ZM102.024 18.8369C102.184 18.9975 102.246 19.1951 102.246 19.4669C102.246 19.7139 102.197 19.9486 101.987 20.1585C101.727 20.4179 101.221 20.5291 99.8375 20.5291H94.0448V18.3799H99.5782C101.344 18.3799 101.764 18.5776 102.024 18.8369ZM101.9 15.2798C102.073 15.4527 102.123 15.6503 102.123 15.885C102.123 16.1444 102.061 16.342 101.913 16.4902C101.653 16.7496 101.258 16.8978 99.5782 16.8978H94.0448V14.8969H99.714C101.159 14.8969 101.641 15.0204 101.9 15.2798Z" fill="#262626"/>
<path fill-rule="evenodd" clip-rule="evenodd" d="M13.058 0.641602H16.1304V24.8601H13.058V0.641602ZM0 12.1405H3.07246V36.359H0V12.1405ZM9.60145 12.1405H6.52898V24.8601H9.60145V12.1405Z" fill="url(#paint0_linear_18:8)"/>
<defs>
<linearGradient id="paint0_linear_18:8" x1="8.60338e-08" y1="8.60883" x2="8.11876" y2="36.3433" gradientUnits="userSpaceOnUse">
<stop stop-color="#FF5FB5"/>
<stop offset="1" stop-color="#E84F5A"/>
</linearGradient>
</defs>
</svg>
